<svg width="16" height="16" viewBox="0 0 16 16" fill="none" xmlns="http://www.w3.org/2000/svg">
<path fill-rule="evenodd" clip-rule="evenodd" d="M6.33439 2.02832H9.30266C9.92495 2.03266 10.4152 2.35598 10.6995 2.91595C10.7403 2.99584 10.7889 3.09407 10.8475 3.21477L11.2532 4.0678C11.2754 4.11479 11.3224 4.14454 11.3867 4.1447L11.52 4.14834C12.9775 4.22451 14.1254 5.42911 14.1254 6.89264V10.6325C14.1254 12.1499 12.8936 13.3806 11.3743 13.3806H4.26338C2.74362 13.3806 1.51172 12.15 1.51172 10.6325V6.89264C1.51172 5.37471 2.74342 4.14454 4.23321 4.1455L4.28042 4.14346C4.3254 4.13768 4.36497 4.10907 4.38433 4.06821L4.69413 3.41438L4.93729 2.91659C5.22299 2.35561 5.71241 2.03266 6.33439 2.02832ZM9.29938 2.97333L6.341 2.97332C6.08412 2.97511 5.91057 3.08964 5.78055 3.34494C5.74258 3.41956 5.69612 3.51378 5.63942 3.63098L5.23964 4.47202C5.0819 4.805 4.76512 5.03404 4.37086 5.08366L4.26338 5.08956C3.26586 5.08956 2.45774 5.89667 2.45774 6.89264V10.6325C2.45774 11.6281 3.26609 12.4356 4.26338 12.4356H11.3743C12.3711 12.4356 13.1793 11.628 13.1793 10.6325V6.89264C13.1793 5.93248 12.426 5.14201 11.483 5.09256L11.2786 5.08534C10.8992 5.05175 10.5629 4.81998 10.3979 4.47161L9.95731 3.54727L9.85633 3.34456C9.72698 3.08978 9.55316 2.97512 9.29938 2.97333ZM5.34098 8.54251C5.32999 7.18572 6.45194 6.05987 7.82138 6.06142L7.94871 6.0648C9.25637 6.13285 10.2985 7.21965 10.2962 8.54389C10.2939 9.9061 9.1827 11.0169 7.8198 11.0184C6.45454 11.0192 5.34018 9.90383 5.34098 8.54251ZM9.35021 8.54225C9.35166 7.69714 8.66403 7.00743 7.82024 7.00648L7.71971 7.00963C6.92171 7.0616 6.28051 7.73732 6.28699 8.53891C6.28651 9.38245 6.97733 10.0739 7.81898 10.0734C8.65993 10.0724 9.34876 9.3839 9.35021 8.54225ZM10.7221 7.01556C10.7895 7.04268 10.8497 7.05851 10.9106 7.06476L10.9721 7.06791L11.0346 7.06482C11.1795 7.05044 11.3153 6.98649 11.4187 6.88249C11.5383 6.7556 11.6028 6.6031 11.6028 6.43817C11.6028 6.35232 11.5852 6.26723 11.5503 6.18897L11.536 6.15216C11.5117 6.10024 11.4681 6.03867 11.4163 5.98766C11.2433 5.81497 10.9666 5.75994 10.7339 5.85203C10.6555 5.88655 10.5981 5.92578 10.5421 5.97452C10.4684 6.04617 10.4277 6.11205 10.3933 6.19015C10.359 6.26723 10.3414 6.35232 10.3414 6.43817C10.3414 6.59982 10.4067 6.75648 10.5194 6.87625C10.5822 6.93994 10.6471 6.98226 10.7221 7.01556Z" fill="white"/>
</svg>
