<svg width="159" height="49" viewBox="0 0 159 49" fill="none" xmlns="http://www.w3.org/2000/svg">
<path d="M32.3398 48.4621V42.5947H33.3352V48.4621H32.3398Z" fill="#212121"/>
<path d="M40.3964 43.4856V48.4679H39.401V43.4856H37.5449V42.5938H42.2592V43.4856H40.3896H40.3964Z" fill="#212121"/>
<path d="M55.9982 43.1572L55.588 44.0289C54.9491 43.64 54.3102 43.4858 53.8663 43.4858C53.288 43.4858 52.9046 43.7071 52.9046 44.096C52.9046 45.3768 56.0856 44.6928 56.0722 46.8051C56.0722 47.8511 55.1441 48.5016 53.8529 48.5016C52.9248 48.5016 52.0506 48.1261 51.4453 47.5695L51.8757 46.7179C52.481 47.2678 53.2409 47.5695 53.8663 47.5695C54.559 47.5695 54.9692 47.308 54.9692 46.8587C54.9692 45.5511 51.7883 46.282 51.7883 44.1899C51.7883 43.184 52.6558 42.5537 53.9336 42.5537C54.7003 42.5537 55.4467 42.7951 55.9915 43.1572H55.9982Z" fill="#212121"/>
<path d="M66.3483 45.5314C66.3483 47.2078 64.9831 48.5087 63.2278 48.5087C61.4726 48.5087 60.1074 47.2078 60.1074 45.5314C60.1074 43.855 61.4726 42.5742 63.2278 42.5742C64.9831 42.5742 66.3483 43.855 66.3483 45.5314ZM61.1162 45.5314C61.1162 46.6982 62.0846 47.6168 63.2346 47.6168C64.3846 47.6168 65.3261 46.6915 65.3261 45.5314C65.3261 44.3713 64.3846 43.4594 63.2346 43.4594C62.0846 43.4594 61.1162 44.3646 61.1162 45.5314Z" fill="#212121"/>
<path d="M74.3108 47.5636V48.4621H70.7734V42.5947H71.7688V47.5636H74.3176H74.3108Z" fill="#212121"/>
<path d="M83.6256 46.0337C83.6256 47.5693 82.6572 48.5081 81.0701 48.5081C79.4829 48.5081 78.5078 47.5693 78.5078 46.0337V42.5938H79.5031V46.0337C79.5031 47.0262 80.1151 47.6163 81.0835 47.6163C82.0519 47.6163 82.637 47.0262 82.637 46.0337V42.5938H83.6323V46.0337H83.6256Z" fill="#212121"/>
<path d="M90.5663 43.4866V48.4688H89.571V43.4866H87.7148V42.5947H92.4291V43.4866H90.5596H90.5663Z" fill="#212121"/>
<path d="M96.6465 48.4612V42.5938H97.6418V48.4612H96.6465Z" fill="#212121"/>
<path d="M108.299 45.5314C108.299 47.2078 106.934 48.5087 105.179 48.5087C103.424 48.5087 102.059 47.2078 102.059 45.5314C102.059 43.855 103.424 42.5742 105.179 42.5742C106.934 42.5742 108.299 43.855 108.299 45.5314ZM103.067 45.5314C103.067 46.6982 104.036 47.6168 105.186 47.6168C106.336 47.6168 107.277 46.6915 107.277 45.5314C107.277 44.3713 106.336 43.4594 105.186 43.4594C104.036 43.4594 103.067 44.3646 103.067 45.5314Z" fill="#212121"/>
<path d="M116.846 48.4621L113.712 44.251V48.4621H112.717V42.5947H113.692L116.846 46.8126V42.5947H117.821V48.4621H116.846Z" fill="#212121"/>
<path d="M126.74 43.1572L126.33 44.0289C125.691 43.64 125.052 43.4858 124.609 43.4858C124.03 43.4858 123.647 43.7071 123.647 44.096C123.647 45.3768 126.828 44.6928 126.814 46.8051C126.814 47.8511 125.886 48.5016 124.595 48.5016C123.667 48.5016 122.793 48.1261 122.188 47.5695L122.618 46.7179C123.223 47.2678 123.983 47.5695 124.609 47.5695C125.294 47.5695 125.711 47.308 125.711 46.8587C125.711 45.5511 122.53 46.282 122.53 44.1899C122.53 43.184 123.398 42.5537 124.676 42.5537C125.442 42.5537 126.189 42.7951 126.734 43.1572H126.74Z" fill="#212121"/>
<path d="M63.9956 26.4537C68.5937 26.4537 72.3212 22.737 72.3212 18.1521C72.3212 13.5673 68.5937 9.85059 63.9956 9.85059C59.3974 9.85059 55.6699 13.5673 55.6699 18.1521C55.6699 22.737 59.3974 26.4537 63.9956 26.4537Z" fill="#35AFE5"/>
<path d="M108.644 24.858C113.242 24.858 116.97 21.1413 116.97 16.5564C116.97 11.9716 113.242 8.25488 108.644 8.25488C104.046 8.25488 100.318 11.9716 100.318 16.5564C100.318 21.1413 104.046 24.858 108.644 24.858Z" fill="#37C116"/>
<path d="M15.0507 27.5539H7.12859C5.05054 27.5539 3.34237 26.9705 2.00408 25.8037C0.66579 24.6369 0 22.9672 0 20.8013V6.82678C0 4.66087 0.66579 2.99116 2.00408 1.82439C3.34237 0.657608 5.05054 0.0742188 7.12859 0.0742188H15.0507V2.64918H7.10841C5.66925 2.64918 4.66048 2.93752 4.08885 3.5075C3.18096 4.45969 2.72366 5.41189 2.72366 6.36409V12.2986H11.9706V14.9406H2.72366V21.2774C2.72366 22.2296 3.18096 23.1751 4.08885 24.1273C4.66721 24.6973 5.66925 24.9789 7.10841 24.9789H15.0507V27.5539Z" fill="#212121"/>
<path d="M34.5132 27.5541H31.7895V15.6516C31.7895 13.935 31.1574 12.4597 29.8998 11.2192C28.6355 9.97866 27.1627 9.36174 25.4814 9.36174C23.8001 9.36174 22.2937 9.97866 21.0294 11.2192C19.7651 12.4597 19.1397 13.935 19.1397 15.6516V27.5541H16.416V15.94C16.416 13.2979 17.2768 11.0985 18.9984 9.34833C20.7201 7.59816 22.8788 6.71973 25.4881 6.71973C28.0975 6.71973 30.2226 7.59816 31.9375 9.34833C33.6591 11.0985 34.5199 13.2979 34.5199 15.94V27.5541H34.5132Z" fill="#212121"/>
<path d="M44.837 27.9831C39.8672 27.9831 37.3789 25.8708 37.3789 21.653V0.0273438H40.1026V7.14201H44.837V9.67674H40.1026V21.1836C40.1026 24.2078 41.683 25.7233 44.837 25.7233V27.9764V27.9831Z" fill="#212121"/>
<path d="M55.2656 9.50191C54.0012 9.54885 52.9723 9.89754 52.1855 10.5413C51.3987 11.185 50.8607 11.7416 50.5715 12.2244C50.1142 13.0089 49.8922 14.0617 49.8922 15.3693V27.5601H47.0273V7.18847H49.5694V10.0853C50.1411 8.99228 50.9884 8.14066 52.1115 7.55057C53.1404 7.00071 54.1896 6.7526 55.2656 6.79954V9.51532V9.50191Z" fill="#212121"/>
<path d="M75.556 17.3677C75.556 20.298 74.4867 22.8328 72.3482 24.9651C70.2096 27.0975 67.6675 28.1168 64.7286 28.0229C61.8839 27.9492 59.4764 26.8762 57.5059 24.8042C55.5355 22.7322 54.5469 20.2645 54.5469 17.4079C54.5469 14.5513 55.6094 11.8758 57.7346 9.74339C59.8597 7.611 62.395 6.59175 65.3339 6.68563C68.1786 6.7795 70.5929 7.87252 72.5768 9.95797C74.5607 12.0434 75.5493 14.5178 75.5493 17.3744L75.556 17.3677ZM72.8324 17.1531C72.7584 15.0006 71.985 13.1565 70.5122 11.6277C69.0394 10.0988 67.2573 9.32764 65.1792 9.32764C63.0003 9.30081 61.1442 10.0653 59.6109 11.6075C58.0775 13.1498 57.2974 15.014 57.2773 17.1933C57.2302 19.3458 57.9363 21.2301 59.3956 22.8462C60.855 24.4622 62.6439 25.3071 64.7488 25.3742C67.0017 25.4949 68.9251 24.717 70.5122 23.0406C72.106 21.3642 72.8794 19.3995 72.8324 17.1531Z" fill="#212121"/>
<path d="M101.623 27.5539H93.7011C91.5961 27.5539 89.8745 26.9705 88.5362 25.8038C87.1979 24.637 86.5254 22.9539 86.5254 20.7611V0.0273438H89.249V21.2305C89.249 22.1827 89.7063 23.1215 90.6142 24.0536C91.1926 24.6236 92.2081 24.9119 93.6674 24.9119H101.61V27.5539H101.623Z" fill="#212121"/>
<path d="M120.622 17.3273V27.5467H117.899V24.3682C115.686 26.8962 112.969 28.1099 109.755 28.0161C106.944 27.9222 104.556 26.8359 102.579 24.7638C100.602 22.6918 99.6133 20.2241 99.6133 17.3675C99.6133 14.5109 100.676 11.8354 102.801 9.70301C104.926 7.57062 107.475 6.56478 110.434 6.68548C113.299 6.77936 115.74 7.87237 117.744 9.95782C119.755 12.0433 120.71 14.5042 120.609 17.3407L120.622 17.3273ZM117.899 17.1328C117.852 14.987 117.085 13.143 115.599 11.6141C114.113 10.0852 112.33 9.32079 110.246 9.32079C108.161 9.32079 106.211 10.0852 104.677 11.6141C103.144 13.143 102.364 14.9937 102.344 17.1664C102.297 19.3189 103.009 21.1964 104.482 22.8058C105.955 24.4151 107.73 25.2735 109.815 25.3673C112.068 25.4612 113.992 24.6834 115.579 23.0204C117.172 21.3574 117.946 19.3993 117.899 17.1261V17.1328Z" fill="#212121"/>
<path d="M144.462 17.3676C144.462 20.2242 143.474 22.6918 141.49 24.7639C139.506 26.8359 137.092 27.9222 134.247 28.0161C131.308 28.11 128.753 27.084 126.574 24.9449C124.401 22.7991 123.346 20.2644 123.42 17.334V0H126.143V10.2931C128.147 7.97969 130.649 6.77939 133.655 6.68551C136.587 6.56481 139.123 7.57736 141.255 9.72315C143.386 11.869 144.456 14.4171 144.456 17.3743L144.462 17.3676ZM141.739 17.1731C141.692 15.0273 140.905 13.1766 139.378 11.641C137.852 10.0987 136.002 9.32752 133.817 9.32752C131.631 9.32752 129.936 10.092 128.45 11.6208C126.964 13.1497 126.19 14.9871 126.143 17.1396C126.069 19.4061 126.843 21.3708 128.45 23.0338C130.057 24.6968 131.981 25.4747 134.213 25.3808C136.325 25.2869 138.114 24.4353 139.58 22.8393C141.046 21.2367 141.766 19.3524 141.739 17.1798V17.1731Z" fill="#212121"/>
<path d="M158.981 21.4779C159.122 23.3152 158.477 24.9045 157.044 26.2523C155.612 27.6001 153.964 28.2103 152.094 28.0896C150.373 27.9689 148.934 27.2782 147.777 26.0176C146.62 24.7569 146.035 23.2549 146.035 21.5114H148.866V22.1954C148.866 22.8928 149.25 23.617 150.016 24.3613C150.783 25.1056 151.597 25.4677 152.451 25.4409C153.601 25.4141 154.509 25.0721 155.175 24.4015C155.773 23.7779 156.082 22.9665 156.109 21.9607C156.136 20.2172 155.141 19.0236 153.13 18.3732L150.729 17.6154C148.221 16.8309 146.909 15.1277 146.788 12.5058C146.714 10.9299 147.252 9.58211 148.389 8.46227C149.525 7.34243 150.897 6.74563 152.505 6.67187C153.897 6.5981 155.195 7.04738 156.405 8.01299C157.616 8.9786 158.268 10.1789 158.362 11.6072V12.2174H155.497V11.748C155.497 11.0238 155.195 10.4404 154.583 9.99115C153.971 9.54188 153.271 9.32059 152.485 9.32059C151.718 9.34741 151.059 9.62234 150.494 10.1454C149.929 10.6751 149.64 11.3323 149.613 12.1235C149.519 13.5854 150.386 14.6247 152.229 15.2484L154.596 16.0396C157.32 16.9717 158.779 18.7822 158.967 21.4712L158.981 21.4779Z" fill="#212121"/>
</svg>
