<svg width="12" height="12" viewBox="0 0 12 12" fill="none" xmlns="http://www.w3.org/2000/svg">
<path d="M5.56254 8.77048H6.43751V5.41633H5.56254V8.77048ZM6.00003 4.41794C6.13352 4.41794 6.24542 4.37279 6.33572 4.28249C6.42602 4.19219 6.47117 4.08029 6.47117 3.94679C6.47117 3.81331 6.42602 3.70141 6.33572 3.6111C6.24542 3.5208 6.13352 3.47565 6.00003 3.47565C5.86653 3.47565 5.75463 3.5208 5.66433 3.6111C5.57403 3.70141 5.52888 3.81331 5.52888 3.94679C5.52888 4.08029 5.57403 4.19219 5.66433 4.28249C5.75463 4.37279 5.86653 4.41794 6.00003 4.41794ZM6.001 11.5413C5.23454 11.5413 4.51411 11.3959 3.83969 11.105C3.16527 10.8141 2.57863 10.4193 2.07975 9.92067C1.58086 9.422 1.18591 8.83561 0.894897 8.16149C0.603882 7.48738 0.458374 6.7671 0.458374 6.00064C0.458374 5.23418 0.603819 4.51374 0.894707 3.83933C1.1856 3.16491 1.58037 2.57826 2.07902 2.07938C2.57768 1.5805 3.16407 1.18555 3.83819 0.894531C4.5123 0.603516 5.23259 0.458008 5.99905 0.458008C6.76551 0.458008 7.48595 0.603453 8.16036 0.894342C8.83478 1.18523 9.42143 1.58 9.9203 2.07865C10.4192 2.57732 10.8141 3.16371 11.1052 3.83783C11.3962 4.51194 11.5417 5.23222 11.5417 5.99868C11.5417 6.76514 11.3962 7.48558 11.1053 8.15999C10.8145 8.83441 10.4197 9.42106 9.92103 9.91994C9.42237 10.4188 8.83598 10.8138 8.16186 11.1048C7.48775 11.3958 6.76746 11.5413 6.001 11.5413ZM6.00003 10.6663C7.3028 10.6663 8.40628 10.2142 9.31044 9.31008C10.2146 8.40591 10.6667 7.30244 10.6667 5.99966C10.6667 4.69688 10.2146 3.59341 9.31044 2.68924C8.40628 1.78508 7.3028 1.33299 6.00003 1.33299C4.69725 1.33299 3.59378 1.78508 2.68961 2.68924C1.78544 3.59341 1.33336 4.69688 1.33336 5.99966C1.33336 7.30244 1.78544 8.40591 2.68961 9.31008C3.59378 10.2142 4.69725 10.6663 6.00003 10.6663Z" fill="#727272"/>
</svg>
