<svg width="364" height="375" viewBox="0 0 364 375" fill="none" xmlns="http://www.w3.org/2000/svg">
<path d="M214 138.182L229.107 111.542C222.427 100.695 218.557 87.9138 218.557 74.2427C218.557 34.8992 250.456 3 289.8 3C329.143 3 361.042 34.8992 361.042 74.2427C361.042 113.586 329.143 145.485 289.8 145.485C273.366 145.485 258.259 139.914 246.211 130.566L246.243 130.597L214.016 138.182H214Z" fill="#F9F9F9" stroke="#DBDBDB" stroke-width="5.69629" stroke-miterlimit="22.9256" stroke-linecap="round" stroke-linejoin="round"/>
<path d="M296.756 45.2128L294.369 82.8239C294.181 85.8984 291.716 88.3486 288.641 88.5358C285.395 88.7231 282.57 86.351 282.211 83.1205L278.029 45.322C277.717 42.4661 279.98 39.9691 282.851 40.0003L292.028 40.1251C294.759 40.1564 296.912 42.4817 296.741 45.2128H296.756Z" fill="#FF725D"/>
<path d="M279.467 107.078C281.059 111.885 286.256 114.491 291.078 112.9C295.885 111.308 298.491 106.111 296.9 101.288C295.308 96.4817 290.111 93.8755 285.288 95.4673C280.482 97.0592 277.875 102.256 279.467 107.078Z" fill="#FF725D"/>
<path d="M54.9653 374.58L246.361 321.69L178.458 76L36.3471 115.281L0 175.709L54.9653 374.58Z" fill="#EBEBEB"/>
<path d="M36.3471 115.281L0 175.709L49.2847 162.1L36.3471 115.281Z" fill="#DBDBDB"/>
<path d="M63.0141 191.957L183.41 262.32L176.03 274.947L55.6349 204.583L63.0141 191.957Z" fill="#DBDBDB"/>
<path d="M161.011 176.948L90.6475 297.344L78.0212 289.965L148.385 169.569L161.011 176.948Z" fill="#DBDBDB"/>
</svg>
