<svg width="24" height="24" viewBox="0 0 24 24" fill="none" xmlns="http://www.w3.org/2000/svg">
<path d="M10.9219 0.0465088C9.98906 0.130884 8.74687 0.412134 7.87969 0.730885C6.76875 1.14338 5.4 1.92151 4.47187 2.67151C3.99844 3.05589 3.05625 3.99807 2.67187 4.47151C1.92187 5.39964 1.14375 6.76838 0.731248 7.87932C0.149998 9.45432 -0.103127 11.3574 0.046873 13.0215C0.135936 14.034 0.403123 15.2246 0.731248 16.1199C1.14375 17.2309 1.92187 18.5996 2.67187 19.5278C3.05625 20.0012 3.99844 20.9434 4.47187 21.3278C5.4 22.0778 6.76875 22.8559 7.87969 23.2684C9.45469 23.8496 11.3578 24.1028 13.0219 23.9528C14.0344 23.8637 15.225 23.5965 16.1203 23.2684C17.2312 22.8559 18.6 22.0778 19.5281 21.3278C20.0016 20.9434 20.9437 20.0012 21.3281 19.5278C22.0781 18.5996 22.8562 17.2309 23.2687 16.1199C23.5969 15.2246 23.8641 14.034 23.9531 13.0215C24.0422 12.0231 23.9812 10.6871 23.8406 10.6871C23.8125 10.6871 23.2734 10.7387 22.6406 10.8043C22.0078 10.8699 21.4875 10.9215 21.4828 10.9215C21.4734 10.9215 21.4688 11.3106 21.4688 11.784C21.4688 13.4949 21.1641 14.859 20.475 16.2371C19.5094 18.1637 17.8594 19.7856 15.9562 20.6715C12.6937 22.1996 9.00937 21.8153 6.11719 19.6449C5.55937 19.2278 4.68281 18.3606 4.27031 17.8215C1.63125 14.3387 1.63125 9.66057 4.27031 6.17776C4.68281 5.6387 5.55937 4.77151 6.11719 4.35432C7.90312 3.01838 9.84844 2.39026 12.225 2.39026C12.5625 2.39026 12.8437 2.3762 12.8437 2.35276C12.8437 2.33401 12.8953 1.80432 12.9609 1.17151C13.0266 0.538696 13.0781 0.0183849 13.0781 0.00901031C13.0781 -0.0144291 11.2875 0.0136967 10.9219 0.0465088Z" fill="white"/>
<path d="M20.1656 2.17031L18 4.33594V2.775V1.21875H16.8047H15.6094V4.80469V8.39062H19.1953H22.7813V7.19531V6H21.225H19.6641L21.8344 3.82969L24 1.66406L23.1656 0.829687L22.3359 0L20.1656 2.17031Z" fill="white"/>
<path d="M10.8046 4.8375C10.7906 4.87031 10.7859 6.76406 10.7906 9.04688L10.8046 13.1953L13.7953 13.2094L16.7812 13.2188V12V10.7812H15H13.2187L13.2093 7.79062L13.1953 4.80469L12.0093 4.79062C11.0859 4.78125 10.8187 4.79062 10.8046 4.8375Z" fill="white"/>
</svg>
