<svg width="40" height="60" viewBox="0 0 40 60" fill="none" xmlns="http://www.w3.org/2000/svg">
<path d="M11.1523 0.117188C8.64453 0.503907 6.11328 1.80469 4.28516 3.62109C2.23438 5.68359 0.945313 8.46094 0.710938 11.332L0.628906 12.3047H2.41016H4.17969V11.8945C4.17969 11.2266 4.51953 9.72656 4.87109 8.90625C5.71484 6.89063 7.51953 5.08594 9.54688 4.21875C12.8516 2.8125 16.6367 3.57422 19.168 6.12891C20.6797 7.66406 21.5 9.38672 21.7109 11.5078L21.793 12.3047H23.5508H25.3086L25.2266 11.2969C24.8633 6.86719 21.957 2.80078 17.8906 1.04297C16.3438 0.375001 15.125 0.10547 13.3789 0.0585947C12.5469 0.0351572 11.5391 0.0585947 11.1523 0.117188Z" fill="white"/>
<path d="M11.7383 7.19539C10.7539 7.44149 10.0156 7.86336 9.26562 8.61336C8.50391 9.37508 8.03516 10.2071 7.82422 11.2266C7.74219 11.6368 7.69531 14.0391 7.69531 18.422V24.9845L7.32031 24.9141C5.29297 24.4805 3.59375 24.9493 2.23438 26.3087C1.47266 27.0704 1.00391 27.9024 0.792969 28.922C0.617188 29.7423 0.617188 41.0743 0.792969 42.6329C1.51953 49.2657 5.52734 55.0079 11.5273 58.0079C18.6992 61.5821 27.4297 60.2462 33.2305 54.668C36.6641 51.3634 38.7031 47.2618 39.207 42.6329C39.3828 41.0743 39.3711 33.2345 39.207 32.4376C38.9844 31.4298 38.5156 30.586 37.7539 29.8243C36.5352 28.6055 34.8828 28.0548 33.2656 28.336C32.8203 28.4063 32.3867 28.5001 32.293 28.5352C32.1758 28.5821 32.0703 28.4649 31.9648 28.1602C31.1445 25.8751 28.625 24.4102 26.2344 24.8204C25.7891 24.8907 25.3555 24.9845 25.2617 25.0196C25.1445 25.0665 25.0391 24.9493 24.9336 24.6446C24.6758 23.9415 24.0664 23.0626 23.457 22.5235C22.168 21.3868 20.4922 21.0001 18.6289 21.3985L18.2422 21.4688V16.6641C18.2422 13.5118 18.1953 11.6368 18.1133 11.2266C17.8906 10.2188 17.4219 9.37508 16.6602 8.60164C15.3477 7.27742 13.5078 6.75008 11.7383 7.19539ZM13.7891 10.7813C14.0938 10.9337 14.3398 11.1798 14.4922 11.4845C14.7266 11.9415 14.7266 12.1524 14.7266 23.6134V35.2735H16.4844H18.2422V30.7032C18.2422 26.3438 18.2539 26.0977 18.4766 25.6641C18.7461 25.1368 19.4141 24.7266 20 24.7266C20.5859 24.7266 21.2539 25.1368 21.5234 25.6641C21.7461 26.0977 21.7578 26.3438 21.7578 30.7032V35.2735H23.5156H25.2734V32.461C25.2734 29.8595 25.2969 29.6016 25.5078 29.1798C25.7773 28.6524 26.4453 28.2423 27.0312 28.2423C27.6172 28.2423 28.2852 28.6524 28.5547 29.1798C28.7656 29.6016 28.7891 29.8595 28.7891 32.461V35.2735H30.5469H32.3047V34.2188C32.3047 33.4102 32.3516 33.047 32.5273 32.7188C32.7852 32.2149 33.5117 31.7579 34.0508 31.7579C34.6484 31.7579 35.3164 32.168 35.5977 32.7071C35.832 33.1876 35.8438 33.293 35.7852 37.9571C35.7383 42.1876 35.7148 42.8321 35.5039 43.7696C34.5547 47.9766 32.1875 51.4923 28.7656 53.7891C27.0078 54.9727 25.168 55.7345 22.918 56.2149C21.5469 56.5079 18.4531 56.5079 17.0703 56.2149C10.6602 54.8555 5.96094 50.2032 4.49609 43.7696C4.27344 42.7852 4.25 42.2462 4.21484 36.1876C4.16797 29.7657 4.16797 29.6602 4.40234 29.1915C4.68359 28.6524 5.35156 28.2423 5.9375 28.2423C6.52344 28.2423 7.19141 28.6524 7.46094 29.1798C7.68359 29.6251 7.69531 29.8595 7.69531 35.9766V42.3048H9.45312H11.2109V27.0938C11.2227 12.6798 11.2344 11.8712 11.4336 11.4962C11.6914 11.0157 12.4297 10.547 12.9453 10.547C13.1562 10.547 13.543 10.6524 13.7891 10.7813Z" fill="white"/>
</svg>
