<svg width="24" height="24" viewBox="0 0 24 24" fill="none" xmlns="http://www.w3.org/2000/svg">
<path d="M19 22.5H5C4.60218 22.5 4.22064 22.342 3.93934 22.0607C3.65804 21.7794 3.5 21.3978 3.5 21V3C3.5 2.60218 3.65804 2.22065 3.93934 1.93934C4.22064 1.65804 4.60218 1.5 5 1.5H14.586C14.783 1.49955 14.9782 1.53816 15.1602 1.6136C15.3423 1.68904 15.5075 1.79981 15.6465 1.9395L20.0605 6.3535C20.2003 6.4924 20.3111 6.65765 20.3866 6.8397C20.462 7.02174 20.5006 7.21695 20.5 7.414V21C20.5 21.3978 20.342 21.7794 20.0607 22.0607C19.7794 22.342 19.3978 22.5 19 22.5ZM5 2.5C4.86739 2.5 4.74021 2.55268 4.64645 2.64645C4.55268 2.74022 4.5 2.8674 4.5 3V21C4.5 21.1326 4.55268 21.2598 4.64645 21.3536C4.74021 21.4473 4.86739 21.5 5 21.5H19C19.1326 21.5 19.2598 21.4473 19.3536 21.3536C19.4473 21.2598 19.5 21.1326 19.5 21V7.414C19.5 7.28141 19.4473 7.15425 19.3535 7.0605L14.9395 2.6465C14.8458 2.55273 14.7186 2.50003 14.586 2.5H5Z" fill="#D9D9D9"/>
<path d="M20 7.49989H16C15.6022 7.49989 15.2206 7.34186 14.9393 7.06055C14.658 6.77925 14.5 6.39772 14.5 5.99989V1.99989C14.5 1.90102 14.5294 1.80437 14.5843 1.72216C14.6392 1.63996 14.7173 1.57589 14.8087 1.53805C14.9 1.50022 15.0005 1.49032 15.0975 1.5096C15.1945 1.52889 15.2836 1.57649 15.3535 1.64639L20.3535 6.64639C20.4234 6.71632 20.471 6.8054 20.4903 6.90238C20.5096 6.99935 20.4997 7.09987 20.4618 7.19122C20.424 7.28257 20.3599 7.36065 20.2777 7.41559C20.1955 7.47054 20.0989 7.49987 20 7.49989ZM15.5 3.20689V5.99989C15.5 6.1325 15.5527 6.25968 15.6464 6.35345C15.7402 6.44722 15.8674 6.49989 16 6.49989H18.793L15.5 3.20689Z" fill="#D9D9D9"/>
<path d="M7.99996 9.99972C7.86736 9.99969 7.74021 9.94699 7.64646 9.85322L6.64646 8.85322C6.55538 8.75891 6.50498 8.63261 6.50612 8.50151C6.50726 8.37042 6.55985 8.24501 6.65255 8.15231C6.74525 8.0596 6.87066 8.00702 7.00176 8.00588C7.13286 8.00474 7.25916 8.05514 7.35346 8.14621L7.99996 8.79272L9.64646 7.14622C9.74076 7.05514 9.86706 7.00474 9.99816 7.00588C10.1293 7.00702 10.2547 7.0596 10.3474 7.15231C10.4401 7.24501 10.4927 7.37042 10.4938 7.50151C10.4949 7.63261 10.4445 7.75891 10.3535 7.85322L8.35346 9.85322C8.25971 9.94699 8.13256 9.99969 7.99996 9.99972Z" fill="#D9D9D9"/>
<path d="M17 9.5H12C11.8674 9.5 11.7402 9.44732 11.6464 9.35355C11.5527 9.25979 11.5 9.13261 11.5 9C11.5 8.86739 11.5527 8.74021 11.6464 8.64645C11.7402 8.55268 11.8674 8.5 12 8.5H17C17.1326 8.5 17.2598 8.55268 17.3536 8.64645C17.4473 8.74021 17.5 8.86739 17.5 9C17.5 9.13261 17.4473 9.25979 17.3536 9.35355C17.2598 9.44732 17.1326 9.5 17 9.5Z" fill="#D9D9D9"/>
<path d="M7.99996 14.4997C7.86736 14.4997 7.74021 14.447 7.64646 14.3532L6.64646 13.3532C6.55538 13.2589 6.50498 13.1326 6.50612 13.0015C6.50726 12.8704 6.55985 12.745 6.65255 12.6523C6.74525 12.5596 6.87066 12.507 7.00176 12.5059C7.13286 12.5047 7.25916 12.5551 7.35346 12.6462L7.99996 13.2927L9.64646 11.6462C9.74076 11.5551 9.86706 11.5047 9.99816 11.5059C10.1293 11.507 10.2547 11.5596 10.3474 11.6523C10.4401 11.745 10.4927 11.8704 10.4938 12.0015C10.4949 12.1326 10.4445 12.2589 10.3535 12.3532L8.35346 14.3532C8.25971 14.447 8.13256 14.4997 7.99996 14.4997Z" fill="#D9D9D9"/>
<path d="M17 14H12C11.8674 14 11.7402 13.9473 11.6464 13.8536C11.5527 13.7598 11.5 13.6326 11.5 13.5C11.5 13.3674 11.5527 13.2402 11.6464 13.1464C11.7402 13.0527 11.8674 13 12 13H17C17.1326 13 17.2598 13.0527 17.3536 13.1464C17.4473 13.2402 17.5 13.3674 17.5 13.5C17.5 13.6326 17.4473 13.7598 17.3536 13.8536C17.2598 13.9473 17.1326 14 17 14Z" fill="#D9D9D9"/>
<path d="M7.99996 18.9997C7.86736 18.9997 7.74021 18.947 7.64646 18.8532L6.64646 17.8532C6.55538 17.7589 6.50498 17.6326 6.50612 17.5015C6.50726 17.3704 6.55985 17.245 6.65255 17.1523C6.74525 17.0596 6.87066 17.007 7.00176 17.0059C7.13286 17.0047 7.25916 17.0551 7.35346 17.1462L7.99996 17.7927L9.64646 16.1462C9.74076 16.0551 9.86706 16.0047 9.99816 16.0059C10.1293 16.007 10.2547 16.0596 10.3474 16.1523C10.4401 16.245 10.4927 16.3704 10.4938 16.5015C10.4949 16.6326 10.4445 16.7589 10.3535 16.8532L8.35346 18.8532C8.25971 18.947 8.13256 18.9997 7.99996 18.9997Z" fill="#D9D9D9"/>
<path d="M17 18.5H12C11.8674 18.5 11.7402 18.4473 11.6464 18.3536C11.5527 18.2598 11.5 18.1326 11.5 18C11.5 17.8674 11.5527 17.7402 11.6464 17.6464C11.7402 17.5527 11.8674 17.5 12 17.5H17C17.1326 17.5 17.2598 17.5527 17.3536 17.6464C17.4473 17.7402 17.5 17.8674 17.5 18C17.5 18.1326 17.4473 18.2598 17.3536 18.3536C17.2598 18.4473 17.1326 18.5 17 18.5Z" fill="#D9D9D9"/>
</svg>
